<svg width="36" height="36" viewBox="0 0 36 36" fill="none" xmlns="http://www.w3.org/2000/svg">
<path fill-rule="evenodd" clip-rule="evenodd" d="M18 36C27.9411 36 36 27.9411 36 18C36 8.05887 27.9411 0 18 0C8.05887 0 0 8.05887 0 18C0 27.9411 8.05887 36 18 36Z" fill="#5181B8"/>
<mask id="mask0" mask-type="alpha" maskUnits="userSpaceOnUse" x="7" y="11" width="22" height="14">
<path fill-rule="evenodd" clip-rule="evenodd" d="M10.9953 0H21.9906V13.06H10.9953H0V0H10.9953Z" transform="translate(7 11)" fill="white"/>
</mask>
<g mask="url(#mask0)">
<path fill-rule="evenodd" clip-rule="evenodd" d="M21.4861 0.8843C21.639 0.374616 21.4861 0 20.7585 0H18.3527C17.741 0 17.459 0.323579 17.306 0.680323C17.306 0.680323 16.0827 3.66247 14.3495 5.59948C13.7888 6.1602 13.5339 6.33874 13.2279 6.33874C13.0751 6.33874 12.8538 6.1602 12.8538 5.65051V0.8843C12.8538 0.272542 12.6761 0 12.1664 0H8.38589C8.00372 0 7.77379 0.283883 7.77379 0.552988C7.77379 1.13296 8.64022 1.26665 8.72958 2.89777V6.44047C8.72958 7.21737 8.58936 7.35811 8.28348 7.35811C7.46791 7.35811 5.484 4.3629 4.30739 0.935337C4.07678 0.269105 3.84548 0 3.23063 0H0.824842C0.137474 0 0 0.323579 0 0.680323C0 1.31751 0.815563 4.47803 3.79754 8.65809C5.78558 11.5126 8.58661 13.06 11.1354 13.06C12.6646 13.06 12.8538 12.7163 12.8538 12.1243V9.96684C12.8538 9.27947 12.9987 9.14234 13.4829 9.14234C13.8396 9.14234 14.4514 9.32072 15.8787 10.697C17.5099 12.3281 17.779 13.06 18.6964 13.06H21.1022C21.7896 13.06 22.1333 12.7163 21.935 12.0381C21.7181 11.362 20.9391 10.3813 19.9058 9.21864C19.3451 8.55602 18.504 7.84253 18.2491 7.48561C17.8922 7.02697 17.9943 6.82282 18.2491 6.41504C18.2491 6.41504 21.1802 2.28619 21.4861 0.8843Z" transform="translate(7 11)" fill="white"/>
</g>
</svg>
