<svg width="36" height="36" viewBox="0 0 36 36" fill="none" xmlns="http://www.w3.org/2000/svg">
<path fill-rule="evenodd" clip-rule="evenodd" d="M18 36C27.9411 36 36 27.9411 36 18C36 8.05887 27.9411 0 18 0C8.05887 0 0 8.05887 0 18C0 27.9411 8.05887 36 18 36Z" fill="#FF0000"/>
<path fill-rule="evenodd" clip-rule="evenodd" d="M20.886 1.15338C21.5449 1.82037 21.7595 3.33496 21.7595 3.33496C21.7595 3.33496 21.979 5.11353 21.979 6.89221V8.55963C21.979 10.3383 21.7595 12.1169 21.7595 12.1169C21.7595 12.1169 21.5449 13.6315 20.886 14.2985C20.1323 15.0878 19.2966 15.169 18.8247 15.2148C18.7729 15.2198 18.7258 15.2244 18.6836 15.2295C15.6079 15.4518 10.9895 15.4588 10.9895 15.4588C10.9895 15.4588 5.27515 15.4066 3.5166 15.238C3.43286 15.2224 3.33154 15.2101 3.21655 15.1963C2.65967 15.1293 1.78613 15.0242 1.09326 14.2985C0.434082 13.6315 0.219727 12.1169 0.219727 12.1169C0.219727 12.1169 0 10.3383 0 8.55963V6.89221C0 5.11353 0.219727 3.33496 0.219727 3.33496C0.219727 3.33496 0.434082 1.82037 1.09326 1.15338C1.84692 0.364197 2.68213 0.282898 3.1543 0.237C3.20581 0.231995 3.25317 0.227417 3.29541 0.222351C6.37109 0 10.9846 0 10.9846 0H10.9944C10.9944 0 15.6079 0 18.6836 0.222351C18.7258 0.227417 18.7732 0.231995 18.8247 0.237C19.2969 0.282898 20.1323 0.364197 20.886 1.15338ZM8.71948 4.40472L8.72046 10.5803L14.6582 7.5033L8.71948 4.40472Z" transform="translate(7 10)" fill="white"/>
</svg>
